<svg width="38" height="32" viewBox="0 0 38 32" fill="none"
  xmlns="http://www.w3.org/2000/svg">
  <path fill-rule="evenodd" clip-rule="evenodd" d="M18.65 11.6426C18.65 11.5045 18.5381 11.3926 18.4 11.3926C18.2619 11.3926 18.15 11.5045 18.15 11.6426L18.15 15.7499H14.043C13.9049 15.7499 13.793 15.8619 13.793 15.9999C13.793 16.138 13.9049 16.2499 14.043 16.2499H18.15V20.3569C18.15 20.495 18.2619 20.6069 18.4 20.6069C18.5381 20.6069 18.65 20.495 18.65 20.3569V16.2499H22.7573C22.8954 16.2499 23.0073 16.138 23.0073 15.9999C23.0073 15.8619 22.8954 15.7499 22.7573 15.7499H18.65V11.6426Z" fill="#28646E"/>
</svg>
