<svg xmlns="http://www.w3.org/2000/svg" viewBox="0 0 24 24">
  <path
    d="M14.77,21.22V20.06H9.32v1.16ZM12.05,13.8a2.76,2.76,0,0,1-2.82-2.86,2.52,2.52,0,0,1,1.33-2.32l.49,1a1.48,1.48,0,0,0-.8,1.32A1.69,1.69,0,0,0,12,12.61a1.69,1.69,0,0,0,1.79-1.67A1.48,1.48,0,0,0,13,9.62l.48-1a2.53,2.53,0,0,1,1.34,2.32A2.74,2.74,0,0,1,12.05,13.8Zm1.07,4.65a2.38,2.38,0,0,0,.73-1.73c0-.64-.3-.95-.61-.95s-.55.47-.69,1.1c-.21.89-.45,2-1.67,2-.91,0-1.64-.79-1.64-2.07A3,3,0,0,1,10,14.71l.85.65a2.32,2.32,0,0,0-.6,1.56c0,.52.23.8.56.8s.48-.46.63-1.09c.2-.9.47-2,1.68-2,1,0,1.75.71,1.75,2.18A3.1,3.1,0,0,1,14,19.08Zm-2-11.95h3.66V7.66H9.32V6.47l3.53-2.53H9.32V2.78h5.45V3.9ZM8.2,15.3C7.39,14,6.49,12.35,6,11.51A1.08,1.08,0,0,1,5.91,11,1.16,1.16,0,0,1,6,10.55c.45-.84,1.35-2.47,2.16-3.78V5.35a1.22,1.22,0,0,0-.28.32c-.9,1.4-2.08,3.51-2.6,4.5a1.86,1.86,0,0,0-.23.87,1.82,1.82,0,0,0,.23.86c.52,1,1.7,3.1,2.6,4.5.07.11.17.25.28.39Zm7.69-8.38c.78,1.28,1.64,2.82,2.07,3.63a1.11,1.11,0,0,1,.13.47,1.16,1.16,0,0,1-.13.49c-.43.81-1.29,2.35-2.07,3.64v1.51l.19-.27c.9-1.4,2.08-3.51,2.6-4.5a1.74,1.74,0,0,0,0-1.73c-.52-1-1.7-3.1-2.6-4.5a1.92,1.92,0,0,0-.18-.22V6.92Z"
    fill="#333"
  />
</svg>
